# AST/ASF file generated using VICON BodyLanguage
# -----------------------------------------------
:version 1.10
:name VICON
:units
  mass 1.0
  length 0.45
  angle deg
:documentation
   .ast/.asf automatically generated from VICON data using
   VICON BodyBuilder and BodyLanguage model FoxedUp or BRILLIANT.MOD
:root
   order TX TY TZ RX RY RZ
   axis XYZ
   position 0 0 0  
   orientation 0 0 0 
:bonedata
  begin
     id 1 
     name lhipjoint
     direction 0.693937 -0.600361 0.397515 
     length 2.37164 
     axis 0 0 0  XYZ
  end
  begin
     id 2 
     name lfemur
     direction 0.34202 -0.939693 0  
     length 6.18497  
     axis 0 0 20  XYZ
    dof rx ry rz
    limits (-160.0 20.0)
           (-70.0 70.0)
           (-60.0 70.0)
  end
  begin
     id 3 
     name ltibia
     direction 0.34202 -0.939693 0   
     length 6.91601   
     axis 0 0 20   XYZ
    dof rx
    limits (-10.0 170.0)
  end
  begin
     id 4 
     name lfoot
     direction 0.0978718 -0.2689 0.958182   
     length 1.81453   
     axis -90 7.62852e-016 20   XYZ
    dof rx rz
    limits (-45.0 90.0)
           (-70.0 20.0)
  end
  begin
     id 5 
     name ltoes
     direction 1.53569e-011 -4.21951e-011 1   
     length 0.912052   
     axis -90 7.62852e-016 20   XYZ
    dof rx
    limits (-90.0 20.0)
  end
  begin
     id 6 
     name rhipjoint
     direction -0.643996 -0.637876 0.422354   
     length 2.23216  
     axis 0 0 0  XYZ 
  end
  begin
     id 7 
     name rfemur
     direction -0.34202 -0.939693 0   
     length 6.15404   
     axis 0 0 -20   XYZ
    dof rx ry rz
    limits (-160.0 20.0)
           (-70.0 70.0)
           (-70.0 60.0)
  end
  begin
     id 8 
     name rtibia
     direction -0.34202 -0.939693 0   
     length 6.86744   
     axis 0 0 -20   XYZ
    dof rx
    limits (-10.0 170.0)
 end
 begin
     id 9 
     name rfoot
     direction -0.118701 -0.326127 0.937844   
     length 1.9243  
     axis -90 -7.62852e-016 -20   XYZ
    dof rx rz
    limits (-45.0 90.0)
           (-20.0 70.0)
  end
  begin
     id 10 
     name rtoes
     direction -1.5356e-011 -4.2181e-011 1   
     length 0.958865   
     axis -90 -7.62852e-016 -20   XYZ
    dof rx
    limits (-90.0 20.0)
  end
  begin
     id 11 
     name lowerback
     direction 0.0310826 0.968686 -0.246334   
     length 2.00021   
     axis 0 0 0   XYZ
    dof rx ry rz
    limits (-20.0 45.0)
           (-30.0 30.0)
           (-30.0 30.0)
  end
  begin
     id 12 
     name upperback
     direction -0.0152834 0.999474 -0.0286152   
     length 2.03728   
     axis 0 0 0   XYZ
    dof rx ry rz
    limits (-20.0 45.0)
           (-30.0 30.0)
           (-30.0 30.0)
  end
  begin
     id 13 
     name thorax
     direction -0.0323701 0.996236 0.0804149   
     length 2.16   
     axis 0 0 0   XYZ
    dof rx ry rz
    limits (-20.0 45.0)
           (-30.0 30.0)
           (-30.0 30.0)
  end
  begin
     id 14 
     name lowerneck
     direction 0.0307935 0.982251 0.185027   
     length 1.43558   
     axis 0 0 0   XYZ
    dof rx ry rz
    limits (-20.0 45.0)
           (-30.0 30.0)
           (-30.0 30.0)
  end
  begin
     id 15 
     name upperneck
     direction -0.0927153 0.994775 0.0427454   
     length 1.44603   
     axis 0 0 0   XYZ
    dof rx ry rz
    limits (-20.0 45.0)
           (-30.0 30.0)
           (-30.0 30.0)
  end
  begin
     id 16
     name head
     direction -0.0341265 0.999406 -0.00472033  
     length 1.45931  
     axis 0 0 0   XYZ
    dof rx ry rz
    limits (-20.0 45.0)
           (-30.0 30.0)
           (-30.0 30.0)
  end
  begin
     id 17 
     name lclavicle
     direction 0.820755 0.555306 -0.134151  
     length 2.66075  
     axis 0 0 0   XYZ
    dof ry rz
    limits (-20.0 10.0)
           (0.0 20.0)
  end
  begin
     id 18 
     name lhumerus
     direction 1 -4.48971e-011 5.24853e-027   
     length 5.0546   
     axis -180 -30 -90   XYZ
    dof rx ry rz
    limits (-60.0 90.0)
           (-90.0 90.0)
           (-90.0 90.0)
  end
  begin
     id 19
     name lradius
     direction 1 -4.48971e-011 2.76575e-028   
     length 3.39013   
     axis -180 -30 -90   XYZ
    dof rx
    limits (-10.0 170.0)
  end
  begin
     id 20
     name lwrist
     direction 1 -4.48939e-011 -2.27826e-027   
     length 1.69507   
     axis 2.17013e-015 90 90   XYZ
    dof ry
    limits (-180.0 0.0)
 end
  begin
     id 21 
     name lhand
     direction 1 -4.49009e-011 -4.55652e-027   
     length 0.572425   
     axis 2.90745e-015 90 90   XYZ
    dof rx rz
    limits (-90.0 90.0)
           (-45.0 45.0)
  end
  begin
     id 22 
     name lfingers
     direction 1 -4.48955e-011 -9.11303e-027   
     length 0.461504   
     axis 5.81489e-015 90 90   XYZ
    dof rx
    limits (0.0 90.0)
  end
  begin
     id 23
     name lthumb
     direction 0.707107 -6.34929e-011 0.707107   
     length 0.66263   
     axis -90 45 2.85299e-015   XYZ
    dof rx rz
    limits (-45.0 45.0)
           (-45.0 45.0)
  end
  begin
     id 24 
     name rclavicle
     direction -0.754477 0.632921 -0.173712   
     length 2.73081  
     axis 0 0 0   XYZ 
    dof ry rz
    limits (-10.0 20.0)
           (-20.0 0.0)
  end
  begin
     id 25 
     name rhumerus
     direction -1 -4.48969e-011 5.1496e-027  
     length 5.0701   
     axis -180 30 90   XYZ
    dof rx ry rz
    limits (-90.0 60.0)
           (-90.0 90.0)
           (-90.0 90.0)
  end
  begin
     id 26 
     name rradius
     direction -1 -4.48967e-011 -7.15624e-028   
     length 3.14957   
     axis -180 30 90   XYZ
    dof rx
    limits (-10.0 170.0)
  end
  begin
     id 27 
     name rwrist
     direction -1 -4.48938e-011 -2.27826e-027   
     length 1.57479   
     axis 2.17013e-015 -90 -90   XYZ
    dof ry
    limits (-180.0 0.0)
  end
  begin
     id 28
     name rhand
     direction -1 -4.49008e-011 -4.55652e-027   
     length 0.718191   
     axis 2.90745e-015 -90 -90   XYZ
    dof rx rz
    limits (-90.0 90.0)
           (-45.0 45.0)
  end
  begin
     id 29
     name rfingers
     direction -1 -4.48953e-011 -9.11303e-027   
     length 0.579024   
     axis 5.81489e-015 -90 -90   XYZ
    dof rx
    limits (0.0 90.0)
  end
  begin
     id 30
     name rthumb
     direction -0.707107 -6.34937e-011 0.707107   
     length 0.831366   
     axis -90 -45 -2.85299e-015   XYZ
    dof rx rz
    limits (-45.0 45.0)
           (-45.0 45.0)
  end
:hierarchy
  begin
    root lhipjoint rhipjoint lowerback
    lhipjoint lfemur
    lfemur ltibia
    ltibia lfoot
    lfoot ltoes
    rhipjoint rfemur
    rfemur rtibia
    rtibia rfoot
    rfoot rtoes
    lowerback upperback
    upperback thorax
    thorax lowerneck lclavicle rclavicle
    lowerneck upperneck
    upperneck head
    lclavicle lhumerus
    lhumerus lradius
    lradius lwrist
    lwrist lhand lthumb
    lhand lfingers
    rclavicle rhumerus
    rhumerus rradius
    rradius rwrist
    rwrist rhand rthumb
    rhand rfingers
  end

#!OML:ASF H:\Male1\Project 1\Capture day 1\Session 1\Male1.ASF
:FULLY-SPECIFIED
:DEGREES
73
root -24.7995 13.825 2.45603 182.168 3.45221 -178.696
lowerback 25.2188 -0.979145 -1.26491
upperback 11.3524 1.16804 -2.19901
thorax -1.41221 1.75126 -1.97922
lowerneck -6.12377 3.60029 6.13872
upperneck -15.1136 5.20646 -8.40802
head -3.10786 3.21754 -3.65339
rclavicle -1.98785e-015 2.66371e-014
rhumerus 5.93743 -9.47061 -57.1993
rradius 109.269
rwrist -15.1646
rhand -34.6776 0.796535
rfingers 7.12502
rthumb -7.83362 -29.0383
lclavicle -1.98785e-015 2.66371e-014
lhumerus 4.10642 11.9555 38.2749
lradius 106.537
lwrist -15.0045
lhand -30.2886 16.2743
lfingers 7.12502
lthumb -3.59612 46.2237
rfemur -36.9253 1.5911 6.80724
rtibia 57.2361
rfoot -19.2199 -24.9562
rtoes -14.2241
lfemur -33.8094 -0.478659 -12.0788
ltibia 59.5781
lfoot -24.9992 12.3712
ltoes -18.3896
74
root -24.6483 13.8901 2.43829 182.356 3.6625 -178.654
lowerback 24.991 -0.95489 -1.30347
upperback 11.3156 1.15769 -2.15867
thorax -1.34606 1.72757 -1.90423
lowerneck -6.22199 3.66612 6.16457
upperneck -15.1065 5.28589 -8.50111
head -3.08011 3.25978 -3.68293
rclavicle 7.95139e-015 -7.15625e-015
rhumerus 6.10386 -9.38278 -57.2108
rradius 109.189
rwrist -15.2922
rhand -34.6906 0.767674
rfingers 7.12502
rthumb -7.84612 -29.0667
lclavicle 7.95139e-015 -7.15625e-015
lhumerus 3.83568 12.1129 37.797
lradius 106.677
lwrist -14.79
lhand -30.0369 16.0654
lfingers 7.12502
lthumb -3.35309 46.0188
rfemur -36.6258 1.53003 7.61491
rtibia 56.4158
rfoot -18.828 -24.8544
rtoes -13.9457
lfemur -33.0853 -0.953487 -11.364
ltibia 58.3032
lfoot -24.4468 13.0055
ltoes -18.6457
75
root -24.4892 13.9579 2.42022 182.518 3.84327 -178.626
lowerback 24.7815 -0.952101 -1.33884
upperback 11.2919 1.12671 -2.13615
thorax -1.27389 1.69724 -1.84558
lowerneck -6.31676 3.73641 6.1746
upperneck -15.1173 5.37599 -8.56634
head -3.05901 3.30804 -3.70185
rclavicle 1.43125e-014 4.21423e-014
rhumerus 6.24133 -9.2344 -57.1861
rradius 109.165
rwrist -15.4465
rhand -34.76 0.745062
rfingers 7.12502
rthumb -7.9131 -29.0868
lclavicle 1.43125e-014 4.21423e-014
lhumerus 3.5811 12.3141 37.2969
lradius 106.794
lwrist -14.5334
lhand -29.7649 15.7644
lfingers 7.12502
lthumb -3.09042 45.7218
rfemur -36.3348 1.45314 8.48792
rtibia 55.684
rfoot -18.5623 -24.6514
rtoes -13.7792
lfemur -32.2845 -1.48994 -10.6469
ltibia 56.9356
lfoot -23.8162 13.6742
ltoes -18.9279
76
root -24.3231 14.0256 2.40184 182.633 3.96188 -178.606
lowerback 24.6095 -0.98076 -1.35428
upperback 11.2856 1.06858 -2.12496
thorax -1.20034 1.65871 -1.80481
lowerneck -6.40497 3.8042 6.17623
upperneck -15.1332 5.46549 -8.60735
head -3.0417 3.35563 -3.71222
rclavicle -1.98785e-014 1.59028e-015
rhumerus 6.32258 -9.0438 -57.1113
rradius 109.218
rwrist -15.6133
rhand -34.8467 0.70473
rfingers 7.12502
rthumb -7.99684 -29.124
lclavicle -1.98785e-014 1.59028e-015
lhumerus 3.35912 12.5327 36.782
lradius 106.868
lwrist -14.2738
lhand -29.516 15.3776
lfingers 7.12502
lthumb -2.85 45.3384
rfemur -35.9669 1.42243 9.33232
rtibia 54.9461
rfoot -18.4295 -24.3964
rtoes -14.0493
lfemur -31.4295 -2.0902 -9.92518
ltibia 55.5284
lfoot -23.1099 14.3403
ltoes -19.158
77
root -24.151 14.0908 2.38366 182.708 4.00171 -178.584
lowerback 24.4655 -1.04012 -1.33697
upperback 11.2947 0.985834 -2.1177
thorax -1.12352 1.61285 -1.7817
lowerneck -6.48249 3.865 6.19957
upperneck -15.1453 5.54451 -8.6441
head -3.02531 3.3963 -3.72501
rclavicle 2.78299e-015 1.11319e-014
rhumerus 6.33644 -8.83028 -56.9744
rradius 109.338
rwrist -15.7932
rhand -34.9205 0.646855
rfingers 7.12502
rthumb -8.06807 -29.1791
lclavicle 2.78299e-015 1.11319e-014
lhumerus 3.17799 12.7252 36.2484
lradius 106.918
lwrist -14.0271
lhand -29.2942 15.0009
lfingers 7.12502
lthumb -2.63582 44.9643
rfemur -35.4974 1.42893 10.1219
rtibia 54.1614
rfoot -18.3228 -24.2259
rtoes -14.8187
lfemur -30.5791 -2.74027 -9.19092
ltibia 54.1455
lfoot -22.3157 14.9833
ltoes -19.2604
78
root -23.9746 14.1526 2.3664 182.747 3.96477 -178.567
lowerback 24.3485 -1.11898 -1.30043
upperback 11.3173 0.889614 -2.1113
thorax -1.04502 1.56441 -1.76799
lowerneck -6.54924 3.91604 6.26041
upperneck -15.1474 5.60754 -8.6852
head -3.00752 3.42652 -3.74532
rclavicle -2.46493e-014 1.59028e-014
rhumerus 6.28889 -8.63058 -56.7765
rradius 109.494
rwrist -15.9674
rhand -34.9571 0.593838
rfingers 7.12502
rthumb -8.10335 -29.2308
lclavicle -2.46493e-014 1.59028e-014
lhumerus 3.05929 12.8701 35.72
lradius 106.952
lwrist -13.7941
lhand -29.0807 14.6932
lfingers 7.12502
lthumb -2.42962 44.6591
rfemur -34.9372 1.37732 10.8789
rtibia 53.3446
rfoot -18.2492 -24.1374
rtoes -16.27
lfemur -29.7825 -3.43135 -8.46335
ltibia 52.8491
lfoot -21.4215 15.6109
ltoes -19.1448
79
root -23.7952 14.2111 2.35126 182.757 3.87932 -178.562
lowerback 24.2625 -1.20025 -1.26645
upperback 11.3495 0.796241 -2.10889
thorax -0.970483 1.52038 -1.75878
lowerneck -6.61541 3.9559 6.37643
upperneck -15.129 5.65014 -8.74347
head -2.9829 3.44322 -3.77943
rclavicle 7.15625e-015 0
rhumerus 6.19629 -8.47284 -56.5357
rradius 109.661
rwrist -16.106
rhand -34.956 0.523836
rfingers 7.12502
rthumb -8.10234 -29.3008
lclavicle 7.15625e-015 0
lhumerus 3.01778 12.9678 35.2109
lradius 106.982
lwrist -13.5595
lhand -28.8507 14.4633
lfingers 7.12502
lthumb -2.20754 44.4316
rfemur -34.3311 1.18631 11.6364
rtibia 52.5294
rfoot -18.243 -24.0748
rtoes -17.8457
lfemur -29.0876 -4.14146 -7.76603
ltibia 51.702
lfoot -20.4133 16.2553
ltoes -18.6901
